<svg xmlns="http://www.w3.org/2000/svg" xmlns:xlink="http://www.w3.org/1999/xlink" aria-hidden="true" role="img" class="iconify iconify--logos" width="31.88" height="32" preserveAspectRatio="xMidYMid meet" viewBox="0 0 256 257"><defs><linearGradient id="IconifyId1813088fe1fbc01fb466" x1="-.828%" x2="57.636%" y1="7.652%" y2="78.411%"><stop offset="0%" stop-color="#FF00DC"></stop><stop offset="100%" stop-color="#FF5E00"></stop></linearGradient></defs><path fill="url(#IconifyId1813088fe1fbc01fb466)" d="M255.153 37.938L134.897 252.976c-2.883 5.084-10.017 5.084-12.9 0L.846 37.938c-2.883-5.084-.7-10.496 4.967-12.862l131.849-50.519c5.668-2.365 11.934-2.365 17.602 0l131.849 50.519c5.667 2.366 7.85 7.778 4.967 12.862Z"></path><path fill="#FFF" d="M185.432.063F92.307 17.801a6.803 6.803 0 0 1 6.876 0l72.352 41.711c2.139 1.231 3.474 3.536 3.474 6.018v84.141c0 2.48-1.335 4.786-3.474 6.018l-72.352 41.711a6.814 6.814 0 0 1-6.876 0l-72.352-41.711A6.803 6.803 0 0 1 82.097 175.618V91.477c0-2.48 1.335-4.787 3.474-6.018L157.923.063Z"></path></svg>